<?xml version="1.0" standalone="no"?><!DOCTYPE svg PUBLIC "-//W3C//DTD SVG 1.1//EN" "http://www.w3.org/Graphics/SVG/1.1/DTD/svg11.dtd"><svg t="1705745700278" class="icon" viewBox="0 0 1024 1024" version="1.1" xmlns="http://www.w3.org/2000/svg" p-id="4294" xmlns:xlink="http://www.w3.org/1999/xlink" width="200" height="200"><path d="M558.281069 127.032208l161.745824 105.652272 0 630.517277L558.281069 863.201757 558.281069 127.032208zM558.281069 127.032208" fill="#13227a" p-id="4295"></path><path d="M732.682122 581.495794l0 278.420127 198.053752 0L930.735873 644.757606 732.682122 581.495794 732.682122 581.495794zM816.309774 799.36894l-60.530608-17.628496 0-52.220339 60.530608 21.972431L816.309774 799.36894 816.309774 799.36894zM816.309774 708.022489l-60.530608-17.631566 0-52.204989 60.530608 21.98471L816.309774 708.022489 816.309774 708.022489zM892.230907 821.35365l-60.559261-17.616216 0-52.244898 60.559261 22.013363L892.230907 821.35365 892.230907 821.35365zM892.230907 730.035852l-60.531632-17.620309 0-52.244898 60.542888 21.985734L892.230907 730.035852 892.230907 730.035852 892.230907 730.035852zM892.230907 730.035852" fill="#13227a" p-id="4296"></path><path d="M339.864548 252.479315l0 418.048211-28.596292 18.687618L311.268256 549.586037l-18.147312 7.502881L293.120944 417.810804l-132.083248 58.317197 0 135.667889-12.642948 5.244444 0 246.161423 391.386992 0L539.78174 124.842333 339.864548 252.479315 339.864548 252.479315zM173.149549 502.694053l44.578288-20.630876 0 53.624315-44.578288 19.818371L173.149549 502.694053 173.149549 502.694053zM176.451758 589.622892l44.577265-20.650319 0 53.651944-44.577265 19.794835L176.451758 589.622892 176.451758 589.622892zM222.36853 782.292006l-44.553729 19.822464 0-52.824089 44.553729-20.621667L222.36853 782.292006 222.36853 782.292006zM222.36853 700.559517l-44.553729 19.850094 0-52.828182 44.553729-20.617573L222.36853 700.559517 222.36853 700.559517zM228.707912 476.831013l44.578288-20.633946 0 53.651944-44.578288 19.806091L228.707912 476.831013 228.707912 476.831013zM232.022401 563.740408l44.564985-20.629853 0 53.650921-44.564985 19.834744L232.022401 563.740408 232.022401 563.740408zM281.820574 756.725724l-44.582381 19.846 0-52.836369 44.582381-20.621667L281.820574 756.725724 281.820574 756.725724zM281.820574 675.033144l-44.582381 19.806091 0-52.81181 44.582381-20.618597L281.820574 675.033144 281.820574 675.033144zM424.571788 684.322717l-61.642942 38.573527 0-57.204863 61.642942-39.873126L424.571788 684.322717 424.571788 684.322717zM424.571788 587.647911l-61.642942 38.562271 0-57.221236 61.642942-39.873126L424.571788 587.647911 424.571788 587.647911zM424.571788 490.933195l-61.642942 38.585807 0-57.244772 61.642942-39.900755L424.571788 490.933195 424.571788 490.933195zM424.571788 394.243039l-61.642942 38.562271 0-57.217143 61.642942-39.900755L424.571788 394.243039 424.571788 394.243039zM424.571788 297.544697l-61.642942 38.573527 0-57.232492 61.642942-39.889499L424.571788 297.544697 424.571788 297.544697zM515.90596 627.181299l-71.52808 44.742017 0-58.936297 71.52808-46.312792L515.90596 627.181299 515.90596 627.181299zM515.90596 530.466584l-71.52808 44.781926 0-58.980299 71.52808-46.308699L515.90596 530.466584 515.90596 530.466584zM515.90596 433.780521l-71.52808 44.765553 0-58.963926 71.52808-46.320978L515.90596 433.780521 515.90596 433.780521zM515.90596 337.078085l-71.52808 44.769646 0-58.963926 71.52808-46.325072L515.90596 337.078085 515.90596 337.078085zM515.90596 240.36337l-71.52808 44.769646 0-58.980299 71.52808-46.307675L515.90596 240.36337 515.90596 240.36337zM515.90596 240.36337" fill="#13227a" p-id="4297"></path></svg>